<svg t="1664988070462" class="icon" viewBox="0 0 1025 1024" version="1.1" xmlns="http://www.w3.org/2000/svg" p-id="4256"
     width="16" height="16">
    <path d="M425.150097 509.514245c-23.52765 0-60.782237-5.038056-92.456161-31.858205-26.52837-22.463936-29.235263-48.148705-26.834482-65.740438 2.470398-18.095436 10.77024-30.92144 11.708029-32.324029l25.531202 17.073697 0.060403-0.090093c-2.127429 3.284309-19.942348 32.809304 9.384032 57.642282 38.590629 32.677235 89.609009 23.415034 90.119879 23.31675 8.328508-1.587894 16.372403 3.878105 17.960296 12.209684 1.588918 8.331579-3.878105 16.372403-12.209684 17.96132C447.446131 507.888471 438.509494 509.514245 425.150097 509.514245z"
          p-id="4257" fill="#8b4513"></path>
    <path d="M713.534529 242.059092c-5.018604-0.620415-8.571145-5.499784-8.274247-10.954521 0.13514-2.474493 0.205781-4.964343 0.205781-7.470574 0-84.846352-73.9594-153.629485-165.192136-153.629485-2.731464 0-5.4445 0.068594-8.143202 0.191448-1.00024-0.119783-1.990242-0.180187-2.968982-0.180187-2.05986 0-4.071601 0.267208-6.032153 0.810839-83.177579 7.977349-148.048822 73.345128-148.048822 152.807384 0 7.914898 0.663414 15.68237 1.917553 23.27068 0.91117 5.516165-2.330139 10.887975-7.416313 11.95169-95.737399 20.030394-165.869883 84.790044-165.869883 161.637547 0 92.825748 102.29885 168.078192 228.490842 168.078192 0.048118 0 0.096236 0 0.145378 0l0.006143 0c6.856302 0 11.523747 7.410171 8.964279 14.292067-67.127669 180.512085-197.332907 280.077424-293.176779 331.465391-9.479244 5.082079-5.294003 19.665925 3.994817 19.665925 0.898885 0 1.845888-0.136164 2.832819-0.432038 136.307008-40.745701 240.272583-103.300114 319.39187-172.669877 4.833299-4.237455 9.56729-8.502551 14.212212-12.789148 4.770848-4.403308 6.799994-11.084542 5.177291-17.370595-3.688705-14.291043-5.599091-29.234239-5.599091-44.491738 0-0.935741 0.00819-1.869435 0.023547-2.802105 0.040951-2.452994-2.951578-3.662086-4.657207-1.898101-13.70339 14.167165-28.004671 27.79889-42.903844 40.861389-8.067442 7.073345-16.29869 13.969574-24.701934 20.695855 28.168477-41.306736 53.350567-88.518676 73.38608-142.393422 7.111225-19.123318 4.432998-40.504087-7.166509-57.193864-11.372227-16.362165-29.98058-26.131141-49.782669-26.131141l-0.145378 0c-25.683746 0-50.490106-3.666181-73.731096-10.897189-21.764689-6.772351-41.112217-16.319166-57.504071-28.37733-17.204741-12.656056-46.066322-39.567322-46.066322-77.61432 0-29.074528 17.011246-51.495465 31.28079-65.184522 22.959448-22.024731 56.301121-38.485179 93.881273-46.347864 32.016892-6.697615 52.855054-37.621103 47.439221-70.40174-0.818006-4.951034-1.23264-9.97271-1.23264-14.925791 0-24.815574 10.043351-48.773215 28.279046-67.458353 18.988178-19.456049 45.079391-31.670852 73.467983-34.393102l3.094908-0.573321 3.33857 0.122854c2.024027-0.092141 3.983555-0.138211 5.823301-0.138211 62.861549 0 114.002783 45.954729 114.002783 102.440132 0 1.525443-0.042999 3.100027-0.130021 4.683826-1.760914 32.294339 21.567098 60.646074 53.108953 64.543631 42.963224 5.310383 72.872139 14.833651 91.434422 29.114456 12.549582 9.655336 26.955289 26.006239 26.955289 67.087742 0 19.681282-3.276119 36.109993-9.736215 48.8285-5.368739 10.569578-13.178187 19.074177-23.87369 26.000096-23.494889 15.214499-60.411626 22.928735-109.726425 22.928735-4.090029 0-8.338746-0.138211-12.642746-0.412586-1.269496-0.080879-2.556396-0.121831-3.824868-0.121831-23.079232 0-43.866204 12.932478-54.249452 33.753235-2.948507 5.913394-5.969702 11.774575-9.061539 17.58559-2.685393 5.04727 1.652392 10.923808 7.281174 9.924592 7.611857-1.351399 15.379329-2.042455 23.250204-2.042455 5.832515 0 11.607698 0.379825 17.30712 1.124118 2.889127 0.377777 5.70966-1.096476 7.00987-3.704062 0.007167-0.014333 0.015357-0.02969 0.022523-0.044023 1.687201-3.382592 4.920321-5.405596 8.4401-5.405596 0.19452 0 0.390063 0.006143 0.58663 0.018428 5.237695 0.333755 10.531697 0.514965 15.882009 0.514965 107.434166 0 194.525683-33.420505 194.525683-148.947707C876.834706 286.535473 806.11764 253.500936 713.534529 242.059092z"
          p-id="4258" fill="#8b4513"></path>
    <path d="M831.374466 715.798122c8.206677 6.694544 12.311039 15.8472 12.311039 27.464111 0 14.773247-7.514597 24.622079-22.539696 29.546494 8.206677 2.52773 14.329947 6.187769 18.371859 10.985235 4.545615 5.051365 6.818422 11.618959 6.818422 19.697663 0 12.50044-4.356214 22.728073-13.069666 30.683922-9.218179 8.209748-21.150417 12.311039-35.797738 12.311039-14.014621 0-25.31723-3.598611-33.902708-10.795834-9.47003-7.954825-14.774271-19.570713-15.909651-34.850735l22.539696 0c0.377777 8.840401 3.154288 15.596372 8.333627 20.265865 4.797466 4.421736 11.047686 6.630045 18.75066 6.630045 8.458529 0 15.214499-2.397709 20.266888-7.197223 4.417641-4.418665 6.629021-9.784333 6.629021-16.100075 0-7.699902-2.337306-13.381921-7.007822-17.046054-4.421736-3.661062-11.050757-5.492618-19.888087-5.492618l-9.47003 0 0-16.667253 9.47003 0c7.955849 0 14.015645-1.704605 18.183482-5.113816 4.03884-3.409211 6.060819-8.458529 6.060819-15.152048 0-6.564523-1.831555-11.554461-5.492618-14.963672-3.914962-3.409211-9.787404-5.113816-17.614256-5.113816-7.955849 0-14.081167 1.959528-18.371859 5.871419-4.545615 3.914962-7.197223 9.976805-7.955849 18.182458l-21.78107 0c1.136404-13.760722 6.184698-24.368179 15.152048-31.820325 8.33465-7.449075 19.255387-11.174636 32.767328-11.174636C812.117032 705.949291 823.164718 709.233599 831.374466 715.798122z"
          p-id="4259" fill="#8b4513"></path>
    <path d="M625.838977 844.857742c-31.644234 0-61.196871-14.896102-83.216483-41.944556-21.269176-26.128069-32.983347-60.679859-32.983347-97.290484s11.713148-71.162414 32.983347-97.290484c22.019612-27.048454 51.572249-41.944556 83.216483-41.944556 31.64321 0 61.196871 14.896102 83.215459 41.944556 21.2702 26.128069 32.984371 60.679859 32.984371 97.290484s-11.713148 71.16139-32.984371 97.290484C687.035849 829.96164 657.482188 844.857742 625.838977 844.857742zM625.838977 597.101275c-47.137203 0-85.486219 48.682098-85.486219 108.521428s38.349015 108.521428 85.486219 108.521428 85.486219-48.682098 85.486219-108.521428S672.976181 597.101275 625.838977 597.101275z"
          p-id="4260" fill="#8b4513"></path>
</svg>